<?xml version="1.0" encoding="utf-8"?>
<!-- Generator: Adobe Illustrator 17.1.0, SVG Export Plug-In . SVG Version: 6.00 Build 0)  -->
<!DOCTYPE svg PUBLIC "-//W3C//DTD SVG 1.1//EN" "http://www.w3.org/Graphics/SVG/1.1/DTD/svg11.dtd">
<svg version="1.1" id="Layer_1" xmlns="http://www.w3.org/2000/svg" xmlns:xlink="http://www.w3.org/1999/xlink" x="0px" y="0px"
	 viewBox="0 0 1000 1000" enable-background="new 0 0 1000 1000" xml:space="preserve">
<g>
	<polygon fill="#122C4F" points="281,751.4 252,765.1 499.7,234.4 499.7,281.8 	"/>
	<polygon fill="#122C4F" points="649.6,556.2 658.1,574.3 252,765.1 266.3,735 	"/>
	<polygon fill="#122C4F" points="631.5,564.6 725.2,765 747.4,765.1 649.6,556.2 	"/>
	<polygon fill="#122C4F" points="605.5,461.4 499.7,234.4 499.7,281.8 587.3,469.9 	"/>
</g>
<path fill="#122C4F" d="M499.7,959.7c-62.1,0-122.3-12.2-179.1-36.2c-54.8-23.2-104-56.3-146.2-98.6S99,733.6,75.9,678.8
	c-24-56.7-36.2-117-36.2-179.1s12.2-122.3,36.2-179.1c23.2-54.8,56.3-104,98.6-146.2c42.2-42.2,91.4-75.4,146.2-98.6
	c56.7-24,117-36.2,179.1-36.2c62.1,0,122.3,12.2,179.1,36.2c54.8,23.2,104,56.3,146.2,98.6c42.2,42.2,75.4,91.4,98.6,146.2
	c24,56.7,36.2,117,36.2,179.1s-12.2,122.3-36.2,179.1c-23.2,54.8-56.3,104-98.6,146.2c-42.2,42.2-91.4,75.4-146.2,98.6
	C622,947.6,561.8,959.7,499.7,959.7z M499.7,59.7c-242.6,0-440,197.4-440,440s197.4,440,440,440c242.6,0,440-197.4,440-440
	S742.3,59.7,499.7,59.7z"/>
</svg>
