<?xml version="1.0" encoding="utf-8"?>
<!-- Generator: Adobe Illustrator 17.1.0, SVG Export Plug-In . SVG Version: 6.00 Build 0)  -->
<!DOCTYPE svg PUBLIC "-//W3C//DTD SVG 1.1//EN" "http://www.w3.org/Graphics/SVG/1.1/DTD/svg11.dtd">
<svg version="1.1" id="Layer_1" xmlns="http://www.w3.org/2000/svg" xmlns:xlink="http://www.w3.org/1999/xlink" x="0px" y="0px"
	 viewBox="0 0 25 25" enable-background="new 0 0 25 25" xml:space="preserve">
<g>
	<path fill="#E6E7E8" d="M19.6,19.6c-0.4,0.4-1,0.4-1.3,0.1L5.3,6.7C5,6.4,5,5.8,5.4,5.4l0,0C5.8,5,6.4,5,6.7,5.3l12.9,12.9
		C20,18.6,20,19.2,19.6,19.6L19.6,19.6z"/>
	<path fill="#E6E7E8" d="M5.4,19.6c0.4,0.4,1,0.4,1.3,0.1L19.7,6.7C20,6.4,20,5.8,19.6,5.4l0,0c-0.4-0.4-1-0.4-1.3-0.1L5.3,18.3
		C5,18.6,5,19.2,5.4,19.6L5.4,19.6z"/>
</g>
</svg>
