<?xml version="1.0" encoding="utf-8"?>
<!-- Generator: Adobe Illustrator 17.1.0, SVG Export Plug-In . SVG Version: 6.00 Build 0)  -->
<!DOCTYPE svg PUBLIC "-//W3C//DTD SVG 1.1//EN" "http://www.w3.org/Graphics/SVG/1.1/DTD/svg11.dtd">
<svg version="1.1" id="Layer_1" xmlns="http://www.w3.org/2000/svg" xmlns:xlink="http://www.w3.org/1999/xlink" x="0px" y="0px"
	 viewBox="0 0 1000 1000" enable-background="new 0 0 1000 1000" xml:space="preserve">
<path fill="#030706" d="M500,920c-56.7,0-111.7-11.1-163.5-33c-50-21.2-94.9-51.4-133.5-90c-38.6-38.6-68.8-83.5-90-133.5
	C91.1,611.7,80,556.7,80,500c0-56.7,11.1-111.7,33-163.5c21.2-50,51.4-94.9,90-133.5s83.5-68.8,133.5-90C388.3,91.1,443.3,80,500,80
	c56.7,0,111.7,11.1,163.5,33c50,21.2,94.9,51.4,133.5,90c38.6,38.6,68.8,83.5,90,133.5c21.9,51.8,33,106.8,33,163.5
	c0,56.7-11.1,111.7-33,163.5c-21.2,50-51.4,94.9-90,133.5c-38.6,38.6-83.5,68.8-133.5,90C611.7,908.9,556.7,920,500,920z M500,120
	c-209.5,0-380,170.5-380,380c0,209.5,170.5,380,380,380c209.5,0,380-170.5,380-380C880,290.5,709.5,120,500,120z"/>
<g>
	<polygon fill="#F97302" points="368,750 268,750 450,250 550,250 	"/>
	<polygon fill="#F97302" points="632,750 732,750 550,250 450,250 	"/>
	<polygon fill="#F97302" points="423,667.5 687.7,667.5 660.3,567.5 459.4,567.5 	"/>
</g>
</svg>
