<?xml version="1.0" encoding="utf-8"?>
<!-- Generator: Adobe Illustrator 17.1.0, SVG Export Plug-In . SVG Version: 6.00 Build 0)  -->
<!DOCTYPE svg PUBLIC "-//W3C//DTD SVG 1.1//EN" "http://www.w3.org/Graphics/SVG/1.1/DTD/svg11.dtd">
<svg version="1.1" id="Layer_1" xmlns="http://www.w3.org/2000/svg" xmlns:xlink="http://www.w3.org/1999/xlink" x="0px" y="0px"
	 viewBox="0 0 1828 968" enable-background="new 0 0 1828 968" xml:space="preserve">
<g>
	<polygon fill="#F97302" points="295,675 195,675 377,175 477,175 	"/>
	<polygon fill="#F97302" points="559,675 659,675 477,175 377,175 	"/>
	<polygon fill="#F97302" points="350,592.5 614.7,592.5 587.3,492.5 386.4,492.5 	"/>
</g>
<g>
	<path d="M757.5,578.6c0,20.7,8.5,32.6,25.5,35.7V675c-74.1-2.7-111.2-36.5-111.2-101.5v-92.8c0-61.5,37.1-93.2,111.2-94.9V446
		c-7.8,1-14,4.3-18.6,9.7c-4.6,5.4-6.9,12.9-6.9,22.4V578.6z M827.3,478.1c0-19-9.4-29.7-28-32.1v-60.2
		c75.5,1.7,113.2,33.7,113.2,95.9v26.5h-85.2V478.1z M912.5,574c0,64.3-37.7,97.9-113.2,101v-60.7c18.7-3.4,28-15.3,28-35.7V551
		h85.2V574z"/>
	<path d="M970.1,392.4v63.8H937v-63.8H970.1z M1062.9,308.8V577c0,25.8,11.2,38.8,33.7,38.8c3.7,0,8-0.2,12.8-0.5
		c4.8-0.3,10-0.8,15.8-1.5v58.1c-3.7,0.7-9,1.4-15.8,2c-6.8,0.7-15,1.5-24.5,2.5c-69.7-0.3-104.5-31.8-104.5-94.4V308.8H1062.9z
		 M1075.7,392.4h35.2v63.8h-35.2V392.4z"/>
	<path d="M1155.2,289.4h84.2v65.3h-84.2V289.4z M1155.2,392.4h82.6v275.9h-82.6V392.4z"/>
	<path d="M1372,578.6c0,23.1,10,35.2,30.1,36.2V675c-77.2-1.7-115.8-35.5-115.8-101.5v-92.8c0-62.9,38.6-94.7,115.8-95.4v60.2
		c-20.1,1.7-30.1,12.6-30.1,32.6V578.6z M1527,574c0,64.3-38.1,97.9-114.2,101v-60.7c19.4-3.1,29.1-15,29.1-35.7V478.1
		c0-19.4-9.7-30.1-29.1-32.1v-60.7c76.2,1.7,114.2,33.8,114.2,96.4V574z"/>
	<path d="M1574.5,392.4h84.2v275.9h-84.2V392.4z M1726.9,668.3V477.6c0-23.1-11.4-34.7-34.2-34.7c-7.5,0-13.9,2.5-19.4,7.6v-49
		c15.6-10.5,34.7-15.8,57.1-15.8c27.5,0,48.3,7.5,62.2,22.4c13.9,15,20.9,39.4,20.9,73.4v186.7H1726.9z"/>
</g>
<g>
	<path d="M686.8,771.9h57.8v189.3h-57.8V771.9z M835.9,798.2c3-5.1,7.1-9.9,12.3-14.4v39.5c-3,2.3-4.5,6.5-4.5,12.6v125.3h-59.5
		V829.7c0-15.4-5.4-23.1-16.1-23.1c-5.1,0-9.6,1.8-13.3,5.3v-33.6c10.7-7.2,21.5-10.9,32.2-10.9c12.6,0,22.8,2.3,30.5,7
		C825.1,779,831.2,787,835.9,798.2z M884.6,961.3V829.7c0-15.4-5.3-23.1-15.8-23.1c-4.9,0-8.8,1.8-11.5,5.3v-33.6
		c8.6-7.2,18.7-10.9,30.1-10.9c18.2,0,32.2,5.3,42,15.9c9.8,10.6,14.7,27.2,14.7,49.9v128.1H884.6z"/>
	<path d="M974.9,906.3c0-19.8,8-35.6,24-47.4c16-11.8,41.5-20,76.5-24.7V871c-14,3.3-24.3,7.3-30.8,12.3c-6.5,4.9-10,10.4-10.5,16.5
		c0.5,15.2,5.8,22.8,16.1,22.8c5.4,0,10.1-0.2,14.2-0.5c4.1-0.3,7.8-1.1,11-2.3v35.7c-8.9,5.6-20.1,8.4-33.6,8.4
		C997.1,963.7,974.9,944.6,974.9,906.3z M1087.2,825.1c0-11-5.7-16.4-17.1-16.4c-8.9,0-15.6,1.5-20.3,4.4c-4.7,2.9-7.2,7.8-7.7,14.5
		h-57.8c0-40.1,28.6-60.2,85.8-60.2c50.9,0,76.3,19.1,76.3,57.4v59.5c0,42.7,2.5,68.4,7.3,77H1096c-3.3-3.7-5.5-7.8-6.8-12.1
		c-1.3-4.3-1.9-9.2-1.9-14.5V825.1z"/>
	<path d="M1182.4,771.9h57.8v189.3h-57.8V771.9z M1248.9,789.4c10-12.8,24.6-19.3,43.8-19.3h3.8v47.9c-3.3-1.2-6.5-2-9.6-2.4
		c-3.1-0.5-6.2-0.7-9.3-0.7c-12.8,0-22.4,4.7-28.7,14V789.4z"/>
	<path d="M1321,679.9h57.8v281.4H1321V679.9z M1385.8,838.8l23.5-39.5l89.3,162h-59.2l-41.3-78.4l-12.3,20.3V838.8z M1415.2,790.5
		l10.5-18.5h65.4l-49.3,68.3L1415.2,790.5z"/>
	<path d="M1579.3,845.1v28.4h-18.2v26.3c0,14.5,6.1,22.8,18.2,24.8v41.3c-51.3-1.4-77-24.6-77-69.6v-63.7c0-42.7,25.7-64.5,77-65.5
		v41.7c-12.1,0.9-18.2,8.3-18.2,22v14.3H1579.3z M1589.1,845.1h20v-14.3c0-13.3-6.7-20.7-20-22v-41.3c52.3,1.2,78.4,23.1,78.4,65.8
		v40.3h-78.4V845.1z M1667.5,896.5c0,44.1-26.1,67.2-78.4,69.3v-41.6c13.3-2.1,20-10.3,20-24.5v-5.3h58.4V896.5z"/>
	<path d="M1707.8,771.9v43.8H1685v-43.8H1707.8z M1771.5,714.5v184.1c0,17.7,7.7,26.6,23.1,26.6c2.6,0,5.5-0.1,8.8-0.4
		c3.3-0.2,6.9-0.6,10.8-1v39.9c-2.6,0.5-6.2,0.9-10.8,1.4c-4.7,0.5-10.3,1.1-16.8,1.8c-47.8-0.2-71.8-21.8-71.8-64.8V714.5H1771.5z
		 M1780.2,771.9h24.2v43.8h-24.2V771.9z"/>
</g>
<path fill="#030706" d="M641.5,738.5C580.4,780.4,506.5,805,427,805C217.5,805,47,634.5,47,425S217.5,45,427,45
	c172,0,317.7,114.9,364.4,272H833c-5-18.8-11.3-37.4-19-55.5c-21.2-50-51.4-94.9-90-133.5c-38.6-38.6-83.5-68.8-133.5-90
	C538.7,16.1,483.7,5,427,5S315.3,16.1,263.5,38c-50,21.2-94.9,51.4-133.5,90c-38.6,38.6-68.8,83.5-90,133.5
	C18.1,313.3,7,368.3,7,425s11.1,111.7,33,163.5c21.2,50,51.4,94.9,90,133.5c38.6,38.6,83.5,68.8,133.5,90
	c51.8,21.9,106.8,33,163.5,33s111.7-11.1,163.5-33c42.6-18.1,81.5-42.7,116-73.5H641.5z"/>
</svg>
