<?xml version="1.0" encoding="utf-8"?>
<!-- Generator: Adobe Illustrator 17.1.0, SVG Export Plug-In . SVG Version: 6.00 Build 0)  -->
<!DOCTYPE svg PUBLIC "-//W3C//DTD SVG 1.1//EN" "http://www.w3.org/Graphics/SVG/1.1/DTD/svg11.dtd">
<svg version="1.1" id="Layer_1" xmlns="http://www.w3.org/2000/svg" xmlns:xlink="http://www.w3.org/1999/xlink" x="0px" y="0px"
	 viewBox="0 0 100 100" enable-background="new 0 0 100 100" xml:space="preserve">
<path fill="#E6E7E8" d="M92.5,22.5v39.1l-10-10.9v26.8c0,2.8-2.2,5-5,5h-55c-2.8,0-5-2.2-5-5v-55c0-2.8,2.2-5,5-5h26.9l-8.8-10H22.5
	c-8.3,0-15,6.7-15,15v55c0,8.3,6.7,15,15,15h55c8.3,0,15-6.7,15-15L92.5,22.5C92.5,22.5,92.5,22.5,92.5,22.5z"/>
<polygon fill="#E6E7E8" points="92.5,7.5 92.5,44.8 80.7,32 56.2,56.6 44.4,44.8 68,20.4 56.7,7.5 "/>
</svg>
