<?xml version="1.0" encoding="utf-8"?>
<!-- Generator: Adobe Illustrator 17.1.0, SVG Export Plug-In . SVG Version: 6.00 Build 0)  -->
<!DOCTYPE svg PUBLIC "-//W3C//DTD SVG 1.1//EN" "http://www.w3.org/Graphics/SVG/1.1/DTD/svg11.dtd">
<svg version="1.1" id="Layer_2" xmlns="http://www.w3.org/2000/svg" xmlns:xlink="http://www.w3.org/1999/xlink" x="0px" y="0px"
	 viewBox="0 0 100 100" enable-background="new 0 0 100 100" xml:space="preserve">
<rect fill="#32DEF4" width="100" height="100"/>
<path fill="#FFFFFF" d="M49.3,38.7c0,0-3.1-10.7,8-17.2s18.1,3.2,18.1,3.2s2.6,0.2,9.6-3.7c0,0-0.9,4.8-6.4,8.3c0,0,4.3-0.4,8.5-2.2
	c0,0-2.8,4.3-7.6,8c0,0,2.2,18.6-14.2,34.7s-39.9,9.8-39.9,9.8s-8.5-2.9-12.7-5.8c0,0,17.4-1.1,22.3-6.3c0,0-10.3-0.4-14.1-10.6
	c0,0,3.9,0.5,6.7-0.4c0,0-12.1-2.6-12-15.2c0,0,2.8,1.6,6.8,1.9c0,0-11.2-7.9-4.6-20.2C17.8,22.8,30.2,38,49.3,38.7z"/>
</svg>
