<?xml version="1.0" encoding="utf-8"?>
<!-- Generator: Adobe Illustrator 17.1.0, SVG Export Plug-In . SVG Version: 6.00 Build 0)  -->
<!DOCTYPE svg PUBLIC "-//W3C//DTD SVG 1.1//EN" "http://www.w3.org/Graphics/SVG/1.1/DTD/svg11.dtd">
<svg version="1.1" id="Layer_1" xmlns="http://www.w3.org/2000/svg" xmlns:xlink="http://www.w3.org/1999/xlink" x="0px" y="0px"
	 viewBox="0 0 336 226" enable-background="new 0 0 336 226" xml:space="preserve">
<g>
	
		<image overflow="visible" width="1410" height="892" xlink:href="64FDC24B.png"  transform="matrix(0.24 0 0 0.24 -1.6544 5.8333)">
	</image>
	<g>
		<g>
			<path fill="#3C3449" d="M242.4,31.4c-41.1,1.4-74,35.2-74,76.6c0,0.1,0,0.2,0,0.3v76.4h0.6c18-10.7,30.1-30.3,30.1-52.8l0-8.6
				c0-1.2,0-2.4,0.1-3.6C199.3,89.9,205,33.9,242.4,31.4z"/>
			<path fill="#D82E31" stroke="#3C3449" stroke-miterlimit="10" d="M245.1,31.3c-0.9,0-1.8,0-2.7,0.1
				c-37.4,2.6-43.1,58.5-43.2,88.4c1.7-29.6,24.4-53.6,53.5-57.3c0,0,0.5-0.1,0.9-0.1c1.9-0.2,3.8-0.3,5.7-0.4
				c20-2.2,37-14,46.5-30.7H245.1z"/>
			<linearGradient id="SVGID_1_" gradientUnits="userSpaceOnUse" x1="210.8471" y1="75.7899" x2="290.6672" y2="74.2171">
				<stop  offset="0" style="stop-color:#B20009"/>
				<stop  offset="1" style="stop-color:#D82E31;stop-opacity:0"/>
			</linearGradient>
			<path fill="url(#SVGID_1_)" d="M245.1,31.3c-0.9,0-1.8,0-2.7,0.1c-37.4,2.6-43.1,58.5-43.2,88.4c1.7-29.6,24.4-53.6,53.5-57.3
				c0,0,0.5-0.1,0.9-0.1c1.9-0.2,3.8-0.3,5.7-0.4c20-2.2,37-14,46.5-30.7H245.1z"/>
			<path fill="#3C3449" d="M92.6,31.4c41.1,1.4,74,35.2,74,76.6c0,0.1,0,0.2,0,0.3v76.4H166c-18-10.7-30.1-30.3-30.1-52.8l0-8.6
				c0-1.2,0-2.4-0.1-3.6C135.7,89.9,129.9,33.9,92.6,31.4z"/>
			<path fill="#D82E31" stroke="#3C3449" stroke-miterlimit="10" d="M89.9,31.3c0.9,0,1.8,0,2.7,0.1c37.4,2.6,43.1,58.5,43.2,88.4
				c-1.7-29.6-24.4-53.6-53.5-57.3c0,0-0.5-0.1-0.9-0.1c-1.9-0.2-3.8-0.3-5.7-0.4c-20-2.2-37-14-46.5-30.7H89.9z"/>
			
				<linearGradient id="SVGID_2_" gradientUnits="userSpaceOnUse" x1="-1761.1528" y1="75.7899" x2="-1681.3328" y2="74.2171" gradientTransform="matrix(-1 0 0 1 -1637.0374 0)">
				<stop  offset="0" style="stop-color:#B20009"/>
				<stop  offset="1" style="stop-color:#D82E31;stop-opacity:0"/>
			</linearGradient>
			<path fill="url(#SVGID_2_)" d="M89.9,31.3c0.9,0,1.8,0,2.7,0.1c37.4,2.6,43.1,58.5,43.2,88.4c-1.7-29.6-24.4-53.6-53.5-57.3
				c0,0-0.5-0.1-0.9-0.1c-1.9-0.2-3.8-0.3-5.7-0.4c-20-2.2-37-14-46.5-30.7H89.9z"/>
		</g>
	</g>
</g>
</svg>
