<?xml version="1.0" encoding="utf-8"?>
<!-- Generator: Adobe Illustrator 17.1.0, SVG Export Plug-In . SVG Version: 6.00 Build 0)  -->
<!DOCTYPE svg PUBLIC "-//W3C//DTD SVG 1.1//EN" "http://www.w3.org/Graphics/SVG/1.1/DTD/svg11.dtd">
<svg version="1.1" id="Layer_1" xmlns="http://www.w3.org/2000/svg" xmlns:xlink="http://www.w3.org/1999/xlink" x="0px" y="0px"
	 viewBox="0 0 1000 1000" enable-background="new 0 0 1000 1000" xml:space="preserve">
<linearGradient id="SVGID_1_" gradientUnits="userSpaceOnUse" x1="134.7211" y1="850.9547" x2="848.7211" y2="164.9546">
	<stop  offset="0" style="stop-color:#8B80FC"/>
	<stop  offset="1" style="stop-color:#CB3958"/>
</linearGradient>
<path fill="url(#SVGID_1_)" d="M500,960c-62.1,0-122.3-12.2-179.1-36.2c-54.8-23.2-104-56.3-146.2-98.6
	c-42.2-42.2-75.4-91.4-98.6-146.2C52.2,622.3,40,562.1,40,500c0-62.1,12.2-122.3,36.2-179.1c23.2-54.8,56.3-104,98.6-146.2
	s91.4-75.4,146.2-98.6C377.7,52.2,437.9,40,500,40c62.1,0,122.3,12.2,179.1,36.2c54.8,23.2,104,56.3,146.2,98.6
	c42.2,42.2,75.4,91.4,98.6,146.2c24,56.7,36.2,117,36.2,179.1c0,62.1-12.2,122.3-36.2,179.1c-23.2,54.8-56.3,104-98.6,146.2
	c-42.2,42.2-91.4,75.4-146.2,98.6C622.3,947.8,562.1,960,500,960z M500,60C257.4,60,60,257.4,60,500c0,242.6,197.4,440,440,440
	c242.6,0,440-197.4,440-440C940,257.4,742.6,60,500,60z"/>
<g>
	<g>
		<path fill="#E6E7E8" d="M333.5,452.6c-1.1,0.4-1.7,2-1.7,2c-2.2,7.2-10.9,24.1-14.7,30.7c-3.8,6.6-1.5,3.1-10.6,15.4
			c-9.1,12.3-12.7,10.4-12.7,10.4c-3.5-2.8-0.2-17.9-0.2-17.9l20.1-76.1c0,0,2.5-13.9,0.7-23.3c-1.8-9.4-10-11.9-10-11.9
			c-17.4-5.8-36,16.5-36,16.5c-36.5,38.8-49.4,82.3-49.4,82.3c-12,6.7-19,16.3-20.7,18.8s-4.2,7.2-2.7,9.1c1.6,1.9,7.6-1.2,8.9-1.8
			c1.3-0.6,9.6-5.8,9.6-5.8c-1.3,4.2-1,16.6-0.7,21.1s1.9,10.7,2.8,13.4c0.9,2.7,3.9,6.8,5.3,8c1.4,1.3,1.6,1.3,1.6,1.3
			s4.1,1.9,6.6-0.8c2.5-2.7,1.7-4.7,1.7-4.7c-1.2-3.7-1.8-7.4-2.8-14.4s5-33.4,5-33.4c36.6-16.5,43.8-3.8,43.8-3.8
			s-2.3,1.8-1.5,18.9c0.8,17,12.1,20.2,12.1,20.2c16.8,4,27.5-14.5,33.9-24.9c6.3-10.5,13.1-35.3,14.3-39.9c1.2-4.6,0.6-6.2,0.4-7.2
			C336.4,453.8,334.7,452.2,333.5,452.6z M279.6,476.6c-14.1-13.2-38-5.6-38-5.6c37-75.9,56.1-72.2,56.1-72.2
			C302.5,405.2,279.6,476.6,279.6,476.6z"/>
		<path fill="#E6E7E8" d="M428.2,427c0,0,2.7,0.4,1.8,4.5s-2.7,11.8-4.4,16.1c-1.7,4.3-7.5,18.5-13.9,27.2
			c-6.5,8.7-15.6,22-33.8,29.9c-18.2,8-32.9-3.8-32.9-3.8s-13.4-8.7-14.2-31.2c-0.9-22.5,11-46.6,11-46.6s11.7-28.3,33.3-36
			c21.6-7.7,29.7,13.4,29.7,13.4s6.7,18.7-9.5,37.9c0,0-2.4,2.5-6.3,0.3c-3.9-2.2-2.5-6.7-2.5-6.7s6.1-10.6,4.7-21.3
			c-1.5-10.6-9.3-7.7-9.3-7.7s-37,19.1-31.3,76.2c0,0,6.1,17.7,27.2,7.5c0,0,28.1-12.4,46.8-57.1C424.4,429.9,425.1,427,428.2,427z"
			/>
		<path fill="#E6E7E8" d="M445.8,342c0,0-42.4,7.5-49.3,26.5c0,0-0.7,6.5,3.8,3.5l4.7-4.5c0,0,5.4-7.4,35.7-11.8
			c0,0-14,42.6-15,62.8c-1.1,20.2-4.8,29.3-0.4,45.9c0,0,1.1,16.5,14.5,21.2c13.4,4.7,28.7-12.6,28.7-12.6s19.1-30,19.2-57.7
			c0,0-0.4-2.6-1.8-2.4c-1.4,0.2-2.2,0.4-4,5.7c-1.9,5.4-13.2,34.8-26.1,46.6c-12.9,11.7-15.7-1.5-15.7-1.5s-1.2-7.2,0.2-23.4
			s7.7-46.6,9.1-53.2c1.3-6.6,6.2-18.5,16.6-35.5c0,0,40.6-3.9,60.3-14.4c19.7-10.5,20.9-23.5,20.9-23.5s1.5-7.9-4.4-8.7
			c-5.9-0.7-7.3,5.6-7.3,5.6s-3.6,12.6-65,26c0,0-2.1-10.6-9.7-9.1S447.7,333.7,445.8,342z"/>
		<path fill="#E6E7E8" d="M545,400.7c0,0-12.3,32.6-20.3,46.5c-8,13.9-14.6,28.1-33.9,24.3c-19.3-3.8-13.8-34.9-13.8-34.9
			s2.7-13.1,5.1-19c2.4-5.8,13.7-35.1,13.7-35.1s1.9-7.2,1.1-11.9c-0.7-4.6,3.8-7.6,7.5-7.9s9.7,1.9,9.1,7.7
			c-0.5,5.8,0.2,9.9-5.6,24.8s-12.6,33.9-13.7,43c-1,9.1-1,17,4.3,18.5c5.2,1.5,11-5.2,11-5.2s14.5-16.8,29.7-51.3
			c0,0,0.4-3.2,3.4-2.6C545.9,398.3,545,400.7,545,400.7z"/>
		<circle fill="#E6E7E8" cx="510" cy="338.1" r="10.1"/>
		<path fill="#E6E7E8" d="M593,335c-14.7-3.3-35,2.1-50.3,51.8c-15.3,49.7,15.7,63.8,15.7,63.8s42.1,16.7,56.7-51.1S593,335,593,335
			z M598.4,395c-14.2,47.6-30.8,47.3-30.8,47.3s-16.9-2.7-8.2-47.5c8.7-44.8,26.1-45.6,26.1-45.6S612.5,347.4,598.4,395z"/>
		<path fill="#E6E7E8" d="M660.3,319.2c0,0-8-0.1-8.2,8.6c-0.3,8.7-1.3,9.5-1.3,9.5l-16.1,50.6c0,0-10.8,44.1,7.8,45.9
			c0,0,5.7-0.1,7.3-4.9c1.7-4.8,4-19.7,9.4-36.5c5.3-16.8,25.6-60.2,45.7-76.1c0,0,4.3-4.6,7.2-2.8s1.5,7,1.5,7
			s-12.2,43.3-14.7,58.5s-1.4,29.5,12.1,34s23.7-8.6,23.7-8.6s10.7-9.6,29.4-63.6c0,0,0.5-1.6-1.7-2.3c-2.3-0.7-3.3,1.8-3.3,1.8
			s-14.3,29-19.1,36.7c-4.8,7.7-13.4,23.3-22,21.6c-8.6-1.7,0-24,0-24l12.2-43.8c0,0,5.5-25.3-10.5-31.4c-16-6.1-24.9,8.7-24.9,8.7
			s-3-1.1-18.4,28.4s-26.1,57.2-26.1,57.2s21.8-60.7,18.7-68.2C666,318,660.3,319.2,660.3,319.2z"/>
		<path fill="#E6E7E8" d="M591.9,347.3c0,0,6.1,16,37.7,2.7c0,0,21.8-8.8,30.6-20c0,0,2.2-1.9,0.9-3.5c-1.3-1.6-2.7-1.7-4.3-0.9
			c-1.6,0.8-18.2,8.8-27.7,11s-18.9,4.2-27.3,1c0,0-5-3.3-9.3,1.3S591.9,347.3,591.9,347.3z"/>
	</g>
	<g>
		<path fill="#E6E7E8" d="M531.5,474c0,0-42.4,7.5-49.3,26.5c0,0-0.7,6.5,3.8,3.5l4.7-4.5c0,0,5.4-7.4,35.7-11.8
			c0,0-14,42.6-15,62.8s-4.8,29.3-0.4,45.9c0,0,1.1,16.5,14.5,21.2c13.4,4.7,28.7-12.6,28.7-12.6s19.1-30,19.2-57.7
			c0,0-0.4-2.6-1.8-2.4c-1.4,0.2-2.2,0.4-4,5.7c-1.9,5.4-13.2,34.8-26.1,46.6c-12.9,11.7-15.7-1.5-15.7-1.5s-1.2-7.2,0.2-23.4
			s7.7-46.6,9.1-53.2c1.3-6.6,6.2-18.5,16.6-35.5c0,0,40.6-3.9,60.3-14.4S633,446,633,446s1.5-7.9-4.4-8.7c-5.9-0.7-7.3,5.6-7.3,5.6
			s-3.6,12.6-65,26c0,0-2.1-10.6-9.7-9.1C539,461.4,533.4,465.7,531.5,474z"/>
		<path fill="#E6E7E8" d="M299.5,545.2c0,0,0.7-6.1-7.9-6.8s-14.6,0.9-20.1,3.6c-5.5,2.6-40,20.4-49.5,53.9c0,0-5.1,15.7,4.4,22.5
			c9.5,6.8,22.1-2.2,22.1-2.2s24.9-18.5,36.8-11.9c11.8,6.5,5.9,25.1,5.9,25.1s-11.5,33.1-48.1,49.3c0,0-11.4,4.5-14.7-0.6
			s0.1-15,0.1-15s3.8-8.6,5-11.2c0,0,0.4-1.5-1.4-2.7S229,649,229,649s-12,8-15.2,24.3c-3.3,16.3,12.4,21.8,12.4,21.8
			s12,5.2,29.1-2.5c17.1-7.7,38.9-28,46.1-42.9s8.4-21.7,7.3-29.7c-1.1-8-1.5-19-15.1-26.5c-13.6-7.5-29.3,1.6-29.3,1.6
			s-12.6,6-18.7,9.4c-6.1,3.4-7,1.1-7,1.1s-3-0.6,1.1-9.4s20.3-32.4,51.3-45.1C291.1,551.3,298.6,550.3,299.5,545.2z"/>
		<path fill="#E6E7E8" d="M322.7,706c0,0-5.3,2.6-2.9,9.4c2.4,6.8,7.6,9.4,7.6,9.4s12.8,8.6,33.6-10.6s35-87.7,35-87.7
			s10.8-47.3,12.8-52.9c2-5.6,3.7-12.8,3.7-12.8s0.3-5.6-5.3-8.3c-5.6-2.6-9.4,2.2-9.4,2.2l-25.7,55.8c0,0-18.6,34.8-27.5,44.4
			c-8.8,9.6-8.7,5.2-8.7,5.2s-3.7-2.1-1.5-15.4c2.1-13.3,9.1-41.3,23.3-66.8c0,0,4.2-4.5-2.4-10c-6.6-5.5-10.4-0.1-10.4-0.1
			s-8.2,11.8-17.6,35.8c-9.4,24-11.6,42.7-11.3,48.6c0.3,5.9,2.4,22.6,14.6,24.6c12.2,1.9,15-3,15-3s6.5-3.8,18.1-26.1
			s12.7-25.1,12.7-25.1l-12.3,48.8c0,0-7.7,25.4-21.9,36.9c0,0-2,1.5-5.3,2.1c-3.3,0.6-4-2.4-4-2.4S330.1,702.5,322.7,706z"/>
		<path fill="#E6E7E8" d="M426.8,623.5c0,0-2.7,4.7,0.9,9.1c3.6,4.3,12.5,6.7,12.5,6.7s10.5,3.5,22.5-3.3c12-6.8,22.1-15.2,26.7-34
			c4.7-18.7-7.6-26.3-7.6-26.3s-10.5-7.9-23-1.6c-12.4,6.3-15.9,3.8-17.9,1.8s-1.9-9.2,1.3-14.6s10.6-15.6,10.6-15.6
			s6.2-7.4,11.8-10.4c0,0,6.7-4.5,11.2-0.8c4.5,3.7,0,15.5,0,15.5l-2.4,5.6c0,0-0.8,2.2,1.5,2.8c2.4,0.7,3.5-0.5,3.5-0.5
			s5.8-4.9,8.4-12.1s1.9-13.7-0.4-17.5c-2.3-3.8-7.5-10.4-16.9-10s-16,3-27.5,14.1c-11.5,11.1-13.9,22.4-13.9,22.4
			s-4.4,10.1-1.7,20.4c2.7,10.3,7.8,12.1,7.8,12.1s6.9,3.7,12.2,2.6s14.9-5.3,17.7-5.8c2.8-0.5,7.1-1.5,9.4,2.1
			c2.3,3.7,2.2,9.5,2.2,9.5s-2.3,14.1-15.2,23.8s-20,4.5-20,4.5l-7.1-3.7C433.5,620.3,429.9,618.5,426.8,623.5z"/>
		<path fill="#E6E7E8" d="M668.8,518.1c-2.2-0.7-2.7,1.2-2.7,1.2c-8.7,22.9-26.7,43.1-26.7,43.1s-18.4,21.5-37.7,19.9
			c-19.3-1.6-15.2-27.2-15.2-27.2s26.9,4.3,44.9-15.8c18-20.1,14.1-39,14.1-39s-5.7-30.6-35-19.6s-39.6,56.4-39.6,56.4
			s-8.6,30.6,5.3,49.1c13.9,18.4,36.3,11.2,36.3,11.2s15.5-3,33.5-22.7s23.8-45.8,25.2-50.7C672.6,519.1,668.8,518.1,668.8,518.1z
			 M612.4,499.2c6.4-5.7,12.3-2.9,12.3-2.9s12,3.3,0.2,27.1S588.2,544,588.2,544C592.7,519.7,606,504.9,612.4,499.2z"/>
		<path fill="#E6E7E8" d="M827.6,476.6c0,0,2.1,1,1.5,3.2c-0.6,2.2-18.7,46.9-21.8,51.8c-3.1,4.8-11.3,22.2-29.8,19.5
			c-18.6-2.7-15.1-30.2-15.1-30.2s0.8-5.4,2-11.3s8.9-28.9,8.9-28.9s6.5-18.8,6.2-23.3c-0.3-4.5-1.5-5.3-1.5-5.3s-4.7-2.6-12.5,7.8
			c-7.8,10.4-17.5,24.5-23.7,39.2c-6.2,14.7-15.7,40.6-14.1,53.1c1.5,12.5,0.6,13.2-5,14.8s-10.5-1.9-11.6-10.5
			c-1.1-8.6-1.8-14.8,5.4-39.8c7.2-25,9.9-34.1,9.9-34.1s4-15.4,0.5-16.4c-3.5-1-8.9,2.9-23.5,25.4c-14.5,22.5-23.3,52.7-23.3,52.7
			s-4.7,15-3.4,29.8c0,0,1.1,5.4-5.8,7.4c-6.8,2-10-4.8-10.4-7.6s-5.2-20.2,3.1-46.5c8.2-26.3,13.7-44.7,13.7-44.7s0.8-2.7,1-7.9
			s6.1-6.8,8.3-6.9c2.2-0.1,8.5,1.3,8.4,6.3s-0.4,13-2.3,19.3c0,0,9.2-23.8,17.4-32.7c8.2-8.9,12.8-12.1,22.1-9.9
			c9.3,2.2,13.3,13,13.2,21.3c0,0,7.8-16.8,14.2-24.1c6.5-7.3,13.1-13.5,22.3-11.3c9.3,2.2,15.8,11.7,14.3,22.6
			c-1.5,10.9-0.2,7.2-4.5,22.3c-4.4,15.1-11.2,38.1-11.2,38.1s-4.6,14.2,2.2,16.1c6.9,1.9,14.4-7.6,14.4-7.6s7.2-11.2,10.1-16.4
			c2.9-5.2,16.6-33.8,16.6-33.8S824.9,475.4,827.6,476.6z"/>
		<path fill="#E6E7E8" d="M343.2,707.8c0,0-7.3,4-8.2,2.9c-1.4-1.9,1-5.1,4.4-8c3.4-2.9,13.5-5.9,13.5-5.9s21-0.5,38-13.6
			s35.6-34.4,48.8-80.1l1.7-5.9c0,0,0.6-2.8-1.1-3.2c-1.7-0.4-3.1,2.2-3.1,2.2s-13.7,28.5-20.1,38.8c-6.4,10.3-16.2,26.6-33.6,38.3
			c0,0-10.3,7.9-22.9,8.6c-12.6,0.6-23.1,2.7-30.1,8.6c-7.1,5.9-12.9,14.1-10.9,23.7s12.4,14.7,20.9,12.4c6.5-1.8,10-4.2,10-4.2
			L343.2,707.8z"/>
		<path fill="#E6E7E8" d="M487.7,600.4c0,0,18.4-30.3,23.4-43.5s2.9,12.4,2.9,12.4l-9.3,17.5c0,0-15.5,42.7-51.1,52.5L487.7,600.4z"
			/>
		<path fill="#E6E7E8" d="M304.1,633.8c0,0,17.6-22.6,29.5-43.9c6.9-12.4-8.5,22.5-8.5,22.5l1.3,3.5c0,0-12.6,36-63.5,72.7
			L304.1,633.8z"/>
	</g>
</g>
<g>
	<g>
		<path fill="#E6E7E8" d="M269.3,794.4c0.8,0.7,6.3,4.9,8.6,6.6c7.1,5.3,8.4,10.2,5.2,14.8c-2.1,3-10.3,2.6-10.3,2.6
			c-0.2,0.2,0.8,9.4-0.4,18.9c-2.5-1.7-3.7-2.6-6.1-4.3c1.6-11.4,2.5-15.5-2-19c-0.5-0.4-0.8-0.6-1.3-1c-3.4,4.4-5.2,6.7-8.6,11.1
			c-2.2-1.7-3.3-2.6-5.5-4.3C255.8,811.3,262.5,802.9,269.3,794.4z M265.6,809.7c1.4,1.1,2,1.6,3.4,2.6c3.3,2.5,6.2,2.6,8,0
			c1.7-2.3,2-5.4-2.3-8.6c-1.2-0.9-1.7-1.3-2.9-2.2C269.4,804.8,268.1,806.4,265.6,809.7z"/>
		<path fill="#E6E7E8" d="M294.1,812.7c7.1,4.8,10.7,7.1,18,11.4c-0.9,1.5-1.3,2.2-2.2,3.7c-5.2-3.1-7.8-4.7-12.8-8
			c-2,3-3,4.6-5,7.6c4.3,2.8,6.5,4.2,10.8,6.8c-1.2,1.3-1.8,2-3,3.3c-4.1-2.5-6.2-3.8-10.2-6.5c-2.3,3.5-3.4,5.2-5.7,8.7
			c5.7,3.7,8.6,5.5,14.4,9c-0.9,1.5-1.3,2.2-2.2,3.7c-8.2-4.9-12.3-7.5-20.2-12.9C281.9,830.6,288,821.6,294.1,812.7z"/>
		<path fill="#E6E7E8" d="M325.6,831.8c1.7,0.9,2.6,1.4,4.3,2.3c-1,11.8-1.6,23.6-1.9,35.4c-2.6-1.2-3.9-1.9-6.5-3.2
			c0.3-3.7,0.4-5.5,0.7-9.2c-4.8-2.5-7.2-3.8-12-6.4c-2.9,2.3-4.4,3.4-7.3,5.6c-2.3-1.3-3.5-2-5.8-3.4
			C306.9,846.3,316.3,839.2,325.6,831.8z M322.7,852.7c0.6-6.1,1.9-14.1,1.9-14.1c-0.1-0.1-6.1,5.6-10.7,9.4
			C317.4,849.9,319.2,850.8,322.7,852.7z"/>
		<path fill="#E6E7E8" d="M345.2,841.7c2.2,1.1,3.4,1.6,5.6,2.6c-3.9,8.6-7.7,17.1-11.6,25.7c5.2,2.3,7.8,3.4,13,5.6
			c-0.7,1.6-1,2.4-1.6,4c-7.8-3.2-11.6-4.9-19.2-8.4C336,861.3,340.6,851.5,345.2,841.7z"/>
		<path fill="#E6E7E8" d="M366.2,850.8c2.3,0.9,3.4,1.4,5.7,2.2c-3.8,10.1-7.7,20.3-11.5,30.4c-2.5-0.9-3.7-1.4-6.2-2.4
			C358.2,871,362.2,860.9,366.2,850.8z"/>
		<path fill="#E6E7E8" d="M366.3,885.6c0.5-1.3,0.7-1.9,1.2-3.2c7.9-5.9,15.5-12,23-18.4c-1.4-0.3-2.7-0.7-4.3-1.2
			c-3.8-1.2-5.7-1.9-9.4-3.2c0.3-1.8,0.4-2.7,0.7-4.5c8.6,3.1,12.9,4.5,21.6,7.1c-0.4,1.3-0.6,2-1,3.3c-7.2,6.6-14.6,12.9-22.2,18.9
			c1.2,0.4,2.4,0.7,3.9,1.2c4.8,1.6,7.1,2.3,11.9,3.7c-0.5,1.7-0.8,2.6-1.3,4.3C380.7,890.6,375.8,889.1,366.3,885.6z"/>
		<path fill="#E6E7E8" d="M404.7,863.8c8,2.2,12,3.2,20,5c-0.4,1.7-0.6,2.5-0.9,4.2c-5.7-1.3-8.6-1.9-14.3-3.4
			c-0.9,3.5-1.4,5.3-2.3,8.8c4.8,1.2,7.2,1.8,12,2.9c-0.7,1.6-1,2.4-1.8,4.1c-4.6-1-6.8-1.6-11.4-2.8c-1.1,4-1.6,6-2.6,10.1
			c6.4,1.7,9.6,2.4,16,3.8c-0.4,1.7-0.6,2.5-0.9,4.2c-9.1-2-13.6-3.1-22.6-5.6C398.9,884.7,401.8,874.2,404.7,863.8z"/>
		<path fill="#E6E7E8" d="M447.3,893.3c-3.3-8.6-4.8-12.9-7.6-21.6c2.6,0.5,3.9,0.7,6.5,1.1c1.9,6.3,3,9.4,5.1,15.7
			c3.9-5.4,5.8-8.1,9.4-13.6c2.6,0.3,3.8,0.5,6.4,0.7c-5.2,7.6-7.9,11.4-13.5,18.9c-0.6,4.8-1,7.3-1.6,12.1
			c-2.6-0.3-3.9-0.5-6.5-0.9C446.1,900.7,446.5,898.2,447.3,893.3z"/>
		<path fill="#E6E7E8" d="M495.8,893.5c-0.3,10-5.6,16.8-16.8,16c-11.1-0.7-15-7.3-14-17.4c1-10,6.5-16.4,16.8-15.7
			C492,877,496.1,883.3,495.8,893.5z M472,892.3c-0.6,6.5,0.6,12.4,8.1,12.9c6.4,0.4,8.6-4.6,8.9-11.4c0.3-6.5-1-12.5-8.1-12.9
			C474.9,880.4,472.5,885.4,472,892.3z"/>
		<path fill="#E6E7E8" d="M507.6,877.6c0,8,0,12.1,0.1,20.1c0,6,3.1,8.3,8,8.2c4.9-0.1,7.2-3.3,7-8.5c-0.3-8-0.5-12.1-0.8-20.1
			c2.4-0.1,3.6-0.2,6.1-0.3c0.5,8.2,0.7,12.3,1.2,20.5c0.4,6.6-3,12.6-14,12.8c-10.4,0.2-13.8-5.6-13.7-12.2
			c0.1-8.2,0.2-12.3,0.3-20.5C504,877.6,505.2,877.6,507.6,877.6z"/>
		<path fill="#E6E7E8" d="M534.5,876.6c1-0.1,7.5-0.7,10.2-1c8.4-0.9,12.5,1.8,13.3,7.4c0.5,3.7-5.5,8.8-5.5,8.8
			c0,0.3,6.7,6.4,12.1,14.2c-2.8,0.4-4.3,0.6-7.1,1c-6.3-9.5-8.4-13.1-13.7-12.6c-0.6,0.1-0.9,0.1-1.5,0.1c0.5,5.6,0.8,8.4,1.3,14
			c-2.6,0.2-3.9,0.3-6.6,0.5C536.1,898.2,535.3,887.4,534.5,876.6z M541.8,890.3c1.6-0.1,2.4-0.2,4.1-0.4c3.9-0.4,6-2.3,5.6-5.4
			c-0.3-2.8-2.1-5.3-7.2-4.8c-1.4,0.1-2.1,0.2-3.4,0.3C541.3,884.1,541.4,886.2,541.8,890.3z"/>
		<path fill="#E6E7E8" d="M576.5,871.1c1-0.2,6.7-1.4,9.8-2.1c11.3-2.4,17.9,1.7,20.8,11.6c3.1,10.4-4.7,18.7-14.6,20.5
			c-4.4,0.8-8.9,1.7-10,1.9C580.5,892.4,578.5,881.7,576.5,871.1z M583.3,874c1.9,9.4,2.9,14.1,4.8,23.6c0.8-0.1,1.9-0.3,4.3-0.8
			c7.5-1.6,10-6.4,8.1-13.9c-1.8-7.2-5.9-11.2-14-9.5C585,873.6,583.9,873.9,583.3,874z"/>
		<path fill="#E6E7E8" d="M608.6,863.6c1-0.3,7.3-2.2,9.9-3c8.1-2.5,12.7-0.7,14.6,4.6c1.2,3.5-3.7,9.8-3.7,9.8
			c0.1,0.3,7.9,4.9,14.8,11.5c-2.7,1-4.1,1.4-6.8,2.4c-8.1-8-10.9-11.2-16.1-9.6c-0.6,0.2-0.9,0.3-1.5,0.4c1.6,5.4,2.4,8.1,4,13.5
			c-2.6,0.8-3.8,1.1-6.4,1.8C614.4,884.4,611.5,874,608.6,863.6z M618.5,875.5c1.6-0.5,2.4-0.7,3.9-1.2c3.8-1.2,5.5-3.4,4.5-6.4
			c-0.9-2.7-3.1-4.7-8-3.2c-1.3,0.4-2,0.6-3.3,1C616.8,869.6,617.4,871.6,618.5,875.5z"/>
		<path fill="#E6E7E8" d="M636.7,854.5c7.8-2.9,11.7-4.4,19.4-7.7c0.7,1.6,1,2.4,1.7,4c-5.5,2.4-8.2,3.5-13.7,5.6
			c1.3,3.4,2,5.1,3.3,8.5c4.7-1.8,7-2.7,11.6-4.7c0.4,1.7,0.6,2.6,0.9,4.3c-4.4,1.8-6.6,2.7-11,4.4c1.5,3.9,2.2,5.8,3.7,9.7
			c6.2-2.4,9.3-3.6,15.4-6.3c0.7,1.6,1,2.4,1.7,4c-8.6,3.7-13,5.5-21.8,8.7C644.2,874.8,640.5,864.7,636.7,854.5z"/>
		<path fill="#E6E7E8" d="M670.1,840.4c1.8-0.8,2.7-1.3,4.4-2.2c8.9,7.7,18.2,15.2,27.6,22.3c-2.5,1.4-3.8,2.1-6.4,3.4
			c-2.8-2.4-4.2-3.6-7-6c-4.8,2.5-7.3,3.6-12.2,5.9c0.2,3.7,0.2,5.5,0.3,9.2c-2.4,1.1-3.6,1.7-6.1,2.7
			C670.9,864,670.7,852.2,670.1,840.4z M685.3,855c-4.6-4.1-10.3-9.8-10.3-9.8c-0.1,0.1,1,8.2,1.4,14.2
			C680,857.6,681.8,856.7,685.3,855z"/>
		<path fill="#E6E7E8" d="M724.1,847.7c-1.6,1-2.5,1.5-4.1,2.5c-4.8-2.9-7.1-4.3-11.8-7.3c-1.4-0.9-7.3-5.3-7.3-5.3
			c-0.1,0,3.2,6,3.8,7.1c2.3,4.5,3.5,6.7,5.8,11.2c-2.2,1.3-3.3,1.9-5.6,3.1c-4.6-9.9-9.2-19.7-13.9-29.6c1.7-1,2.6-1.4,4.3-2.4
			c7.2,5.3,10.8,7.8,18.3,12.8c1.3,0.9,4.6,3,4.6,3c0.1-0.1-0.4-3.8-0.6-5.4c-1.1-8.9-1.7-13.4-3.1-22.2c1.6-1.1,2.4-1.6,4-2.7
			c6.7,8.6,13.4,17.2,20.2,25.7c-2.1,1.5-3.2,2.2-5.3,3.6c-3-4-4.4-6-7.4-10c-0.9-1.3-4.6-6.5-4.6-6.5c-0.1,0,1.2,7,1.5,8.5
			C723.4,839.3,723.7,842.1,724.1,847.7z"/>
		<path fill="#E6E7E8" d="M744,796.4c0.2,2,0.3,2.9,0.5,4.9c0,0-4.8,0.9-7.4,2.9c-2.1,1.6-3.2,3.7-1.9,5.6c1.7,2.3,4.4,2.4,8.9,0.9
			c5.9-2,10.1-2.5,13.4,1.6c3.1,3.8,2.5,10.6-4.3,15.7c-4.9,3.6-10.3,4.6-12,4.9c-0.2-2-0.3-3-0.6-5c0,0,6.9-1.2,9.5-3.2
			c3.2-2.4,3.7-5.1,1.9-7.4c-1.8-2.3-4.1-1.8-7.6-0.7c-6.8,2.2-11.4,2.5-14.6-2c-2.7-3.8-1.1-9.8,4.2-13.8
			C738.1,797.9,742.8,796.6,744,796.4z"/>
	</g>
</g>
<g>
	<g>
		<path fill="#E6E7E8" d="M213.1,202.5c0.9-0.8,6.8-6.2,9.3-8.4c7.2-6.2,13.1-6.7,16.3-2.2c1.9,2.7-0.3,10-0.3,10
			c0.2,0.2,8.2-1,10.3,2c3.3,4.7,1.7,10.8-6,17.4c-3.1,2.7-7.5,6.6-8.5,7.5C227.2,220.2,220.1,211.3,213.1,202.5z M227.4,209
			c1.4-1.2,2.1-1.8,3.5-3c3.8-3.3,4-6.3,2.4-8.6c-1.5-2.1-4.5-3.1-9,0.8c-1.3,1.2-2.4,2.1-3.1,2.8
			C223.6,204.1,224.9,205.7,227.4,209z M236.7,221c1.5-1.3,2.2-2,3.8-3.3c4-3.4,4.2-6.6,2.4-9.1c-1.7-2.3-4.7-3.4-9.5,0.8
			c-1.4,1.2-2.5,2.2-3.3,3C232.7,215.8,234,217.6,236.7,221z"/>
		<path fill="#E6E7E8" d="M239.7,180c7.7-6.1,11.7-9,19.6-14.5c0.9,1.6,1.4,2.3,2.4,3.9c-5.5,3.9-8.3,5.9-13.7,10
			c2.1,3.2,3.1,4.8,5.2,7.9c4.4-3.3,6.6-4.9,11.1-8.1c0.7,1.8,1,2.6,1.7,4.4c-4.1,2.9-6.2,4.4-10.2,7.5c2.4,3.6,3.6,5.5,6,9.1
			c5.4-4.1,8.2-6.1,13.7-9.9c0.9,1.6,1.4,2.3,2.3,3.9c-7.7,5.3-11.4,8.1-18.9,13.9C252.4,198.7,246,189.4,239.7,180z"/>
		<path fill="#E6E7E8" d="M285.6,151.1c-0.2,2.1-0.3,3.2-0.4,5.4c0.1,0-5.1,0.4-8.2,2.4c-2.4,1.5-3.9,3.8-2.7,5.9
			c1.5,2.6,4.2,2.9,9,1.8c6.2-1.4,10.4-1.2,13,3.8c2.4,4.6,1,11.4-5.8,15.7c-4.9,3.1-10.1,3.7-11.7,3.8c-0.2-2.1-0.2-3.2-0.4-5.3
			c0,0,6.8-0.6,9.5-2.4c3.3-2.1,4.1-4.8,2.6-7.5c-1.4-2.7-3.8-2.5-7.4-1.7c-7,1.5-11.7,1.9-14.7-3.2c-2.5-4.3-0.2-10.9,6.1-14.9
			C279.1,151.9,284.3,151.1,285.6,151.1z"/>
		<path fill="#E6E7E8" d="M311.9,134c0.4,1.8,0.6,2.8,1.1,4.6c-3.5,1.8-5.2,2.7-8.7,4.5c4.2,9,8.4,18,12.6,27
			c-2.3,1.2-3.4,1.8-5.7,3.1c-4.3-8.9-8.7-17.9-13-26.8c-3.5,2-5.2,3-8.7,5c-0.8-1.6-1.2-2.4-2.1-4.1C297.1,141.7,302,139,311.9,134
			z"/>
		<path fill="#E6E7E8" d="M355,129.7c-1-1.2-2.6-3.4-2.6-3.4c0,0,0.2,2.7,0.2,4.3c0,9,0,13.5,0.3,22.5c-1.8,0.7-2.6,1.1-4.4,1.8
			c-7.1-9.5-14.5-18.8-22.1-27.9c2.5-1.2,3.8-1.7,6.3-2.8c4.3,5.6,6.5,8.5,10.7,14.2c1.8,2.4,4.2,6.1,4.2,6.1c0,0-0.3-4.4-0.4-7.6
			c-0.2-7.5-0.2-11.2-0.2-18.7c1.9-0.8,2.9-1.1,4.8-1.9c4.5,5.7,6.7,8.6,11,14.5c1.9,2.5,4.3,6.4,4.3,6.4c0,0-0.6-4.5-0.6-7.8
			c-0.2-7.3-0.3-11-0.3-18.3c2.6-0.9,4-1.3,6.6-2.2c-0.3,12.2-0.4,24.4-0.2,36.6c-1.8,0.6-2.7,0.9-4.4,1.6
			C363.2,140,360.5,136.5,355,129.7z"/>
		<path fill="#E6E7E8" d="M376.7,107.7c8.8-2.8,13.3-4,22.2-6.3c0.4,1.8,0.6,2.7,1,4.5c-6.2,1.6-9.3,2.4-15.5,4.2
			c1,3.8,1.4,5.6,2.4,9.4c5-1.5,7.5-2.2,12.5-3.5c0.1,1.9,0.1,2.9,0.2,4.8c-4.6,1.2-7,1.9-11.6,3.2c1.1,4.3,1.7,6.5,2.8,10.8
			c6.2-1.8,9.3-2.7,15.5-4.2c0.4,1.8,0.6,2.7,1,4.5c-8.6,2.1-12.9,3.3-21.4,6C382.8,130,379.8,118.9,376.7,107.7z"/>
		<path fill="#E6E7E8" d="M405.2,99.9c1.1-0.3,8.2-2,11.2-2.6c8.6-1.8,13.8,0.8,14.7,6.4c0.5,3.3-4.4,8.7-4.4,8.7
			c0.1,0.3,7.3,3.3,7.9,7c0.9,5.8-3,10.4-12.2,12.3c-3.7,0.8-9,1.9-10.2,2.2C409.8,122.6,407.5,111.3,405.2,99.9z M414.6,112.9
			c1.7-0.4,2.5-0.5,4.2-0.9c4.6-0.9,6-3.5,5.5-6.3c-0.4-2.6-2.5-5-7.9-3.9c-1.6,0.3-2.8,0.6-3.7,0.8
			C413.4,106.8,413.8,108.8,414.6,112.9z M417.5,128.3c1.8-0.4,2.7-0.6,4.5-1c4.8-1,6.3-3.6,5.8-6.7c-0.5-2.8-2.6-5.4-8.4-4.2
			c-1.7,0.4-3.1,0.6-4,0.9C416.2,121.7,416.7,123.9,417.5,128.3z"/>
		<path fill="#E6E7E8" d="M436.8,93.7c1.1-0.2,7.7-1.1,11-1.7c10.2-1.6,19.4,4.7,20.1,15.3c0.7,10.3-6.6,18.6-16.9,19.6
			c-4.2,0.4-8.5,1.1-9.6,1.3C440,116.7,438.4,105.2,436.8,93.7z M444.1,97.2c1.2,10.2,1.9,15.3,3.1,25.6c0.8-0.1,1.9-0.2,4.2-0.5
			c7.4-0.9,10.4-5.5,9.7-13.8c-0.7-7.9-4.5-13-13.4-11.8C445.9,96.9,444.8,97.2,444.1,97.2z"/>
		<path fill="#E6E7E8" d="M473.2,89.7c9.1-0.6,13.7-0.8,22.8-0.9c0,1.9,0,2.8,0,4.6c-6.4,0.1-9.6,0.2-15.9,0.5
			c0.2,3.9,0.3,5.8,0.4,9.7c5.1-0.3,7.7-0.3,12.8-0.4c-0.3,1.9-0.5,2.8-0.7,4.7c-4.8,0.1-7.1,0.2-11.9,0.4c0.2,4.5,0.3,6.7,0.5,11.2
			c6.3-0.3,9.5-0.4,15.8-0.5c0,1.9,0,2.8,0,4.6c-8.8,0.1-13.2,0.2-21.9,0.8C474.5,112.9,473.9,101.3,473.2,89.7z"/>
		<path fill="#E6E7E8" d="M524.4,91.8c-1.2,1.7-1.8,2.6-3,4.3c0.1,0-4.3-2.6-7.8-2.7c-2.7-0.1-5,1-5.1,3.5c-0.1,3.1,2.1,4.9,6.5,6.7
			c5.8,2.3,9.1,5,8.8,10.7c-0.3,5.2-4.7,10.2-12.4,10c-5.5-0.2-10-2.7-11.4-3.5c0.9-1.9,1.3-2.8,2.2-4.7c-0.1,0,5.8,3.4,8.9,3.4
			c3.7,0.1,5.7-1.7,5.8-4.9c0.1-3.1-1.9-4.3-5.2-5.7c-6.4-2.7-10.4-5.1-10.4-11.1c0-5,5.1-9.3,12.1-9.1
			C518.7,88.7,523.4,91,524.4,91.8z"/>
		<path fill="#E6E7E8" d="M531.1,89.9c2.7,0.2,4,0.3,6.7,0.6c-0.9,11.6-1.8,23.1-2.7,34.7c-2.5-0.2-3.7-0.3-6.3-0.5
			C529.6,113.1,530.4,101.5,531.1,89.9z"/>
		<path fill="#E6E7E8" d="M555.2,135c6.5-2.1,7.1-6.4,7.6-9.7c0-0.3,0.1-0.4,0.1-0.7c-2,2.6-5.4,3.7-9.4,3.1
			c-8.7-1.2-11.6-8.6-10.9-18.8c0.7-9.7,8.1-17.9,18.4-16.2c4.9,0.8,8.2,3.1,9.8,5.3c-1.5,1.3-2.3,2-3.8,3.3c-1.6-2-4.5-3.6-7.4-4
			c-6.4-0.9-9.2,4.7-10,11.9c-0.8,7.7,0.6,13.2,5.6,13.9c3.3,0.5,7.5-1.8,8.2-6.7c0.3-1.9,0.4-2.8,0.7-4.6c2.5,0.4,3.8,0.6,6.3,1.1
			c-0.9,6.1-1.4,9.2-2.4,15.3c-1.3,8.2-6.6,9.7-11,11.2C556.3,137.6,555.9,136.8,555.2,135z"/>
		<path fill="#E6E7E8" d="M602.2,101.4c2.6,0.7,4,1,6.6,1.7c-2.7,11.3-5.3,22.6-8,33.8c-2-0.5-3.1-0.8-5.1-1.3
			c-3.1-8.3-4.8-12.5-8.3-20.7c-1-2.2-3.3-7.7-3.3-7.7c-0.1,0-0.4,4.7-0.8,6.9c-1.3,7.2-1.9,10.7-3.1,17.9c-2.5-0.5-3.7-0.8-6.2-1.3
			c1.9-11.5,3.9-22.9,5.8-34.4c2.1,0.4,3.1,0.6,5.2,1c4,8.2,5.9,12.3,9.4,20.6c1,2.2,3,7.3,3,7.3c0.1,0,0.7-4.5,1-6.1
			C600,112.1,600.7,108.5,602.2,101.4z"/>
		<path fill="#E6E7E8" d="M651.2,119.4c-1.6,1.3-2.4,1.9-4,3.2c0.1,0-3.5-3.8-6.8-5c-2.6-0.9-5.1-0.6-5.8,1.7
			c-0.9,2.9,0.7,5.3,4.5,8.4c4.9,4.1,7.5,7.6,5.7,13c-1.7,4.9-7.3,8.3-14.7,5.6c-5.2-1.9-8.9-5.7-10.1-6.9c1.4-1.5,2.1-2.3,3.4-3.8
			c-0.1,0,4.7,5,7.6,6.1c3.6,1.3,5.9,0.1,6.9-2.9c0.9-2.9-0.7-4.7-3.5-7.1c-5.5-4.6-8.7-8.2-7.1-13.9c1.4-4.8,7.4-7.3,14.2-4.9
			C646.5,114.7,650.4,118.4,651.2,119.4z"/>
		<path fill="#E6E7E8" d="M680.2,129.5c-1,1.5-1.5,2.3-2.5,3.9c-3.5-1.7-5.3-2.5-8.8-4.1c-3.6,9.3-7.2,18.6-10.8,27.9
			c-2.3-1-3.5-1.5-5.8-2.5c3.5-9.4,6.9-18.7,10.4-28.1c-3.6-1.5-5.5-2.3-9.1-3.8c0.6-1.7,0.9-2.6,1.5-4.3
			C665.1,122.6,670.2,124.8,680.2,129.5z"/>
		<path fill="#E6E7E8" d="M690.1,134.4c-3.4,7.8-5.2,11.7-8.6,19.5c-2.5,5.8-0.8,9.4,3.6,11.7c4.4,2.3,7.9,0.6,10.3-4.3
			c3.7-7.7,5.6-11.5,9.3-19.1c2.5,1.4,3.7,2.1,6.1,3.5c-3.9,7.8-5.9,11.6-9.8,19.4c-3.1,6.3-9,9.6-18.5,4.5
			c-9.1-4.8-9.8-11.7-7.1-18.1c3.4-8,5.1-12,8.5-20C686.4,132.5,687.6,133.2,690.1,134.4z"/>
		<path fill="#E6E7E8" d="M717.4,149.5c1,0.6,6.9,4.2,10,6.1c9,5.4,13.5,16.3,7.8,25.7c-5.6,9.2-16.8,9.8-25.2,4.1
			c-3.6-2.5-7.6-4.8-8.6-5.4C706.8,169.8,712.1,159.7,717.4,149.5z M721.3,157.2c-4.8,8.9-7.3,13.4-12.1,22.3
			c0.7,0.5,1.6,1.1,3.7,2.4c6.6,4.2,11.7,2.7,15.8-4.4c4-6.7,3.8-13.3-4.2-18.4C723,158.1,721.9,157.5,721.3,157.2z"/>
		<path fill="#E6E7E8" d="M749.5,170.9c2.3,1.7,3.5,2.6,5.8,4.3c-6.2,9.5-12.5,19-18.7,28.5c-2.1-1.6-3.2-2.4-5.4-4
			C737.4,190.1,743.5,180.5,749.5,170.9z"/>
		<path fill="#E6E7E8" d="M777.7,215.5c-6.5,7.8-14.8,10-23.6,2.5c-8.7-7.4-8.6-15.4-3-24.1c5.5-8.6,16.4-9.9,24.2-3.3
			C782.8,197,784.3,207.7,777.7,215.5z M757.4,198.2c-3.9,5.5-6,11.5,0.1,16.6c5.1,4.3,9.9,1.6,14.3-4c4.1-5.4,6.6-11.6,0.1-17.1
			C766.5,189.2,761.5,192.3,757.4,198.2z"/>
	</g>
</g>
<g>
	<linearGradient id="SVGID_2_" gradientUnits="userSpaceOnUse" x1="346.5865" y1="1071.4677" x2="1060.5865" y2="385.4677">
		<stop  offset="0" style="stop-color:#8B80FC"/>
		<stop  offset="1" style="stop-color:#CB3958"/>
	</linearGradient>
	<path fill="url(#SVGID_2_)" d="M888.9,563.2c-4.1-0.7-7.4-2.9-9.8-5.9c-2.4-3-3.6-6.9-3.1-10.8c0.5-4,2.7-7.4,5.5-9.8
		c2.9-2.4,6.8-3.8,10.9-3.4c4.1,0.3,7.7,2.4,10.2,5.4c2.6,3.1,3.6,7.1,3.1,11.4c-0.5,4.3-2.7,8-5.7,10.4
		C897,562.8,893,563.9,888.9,563.2z"/>
</g>
<g>
	<linearGradient id="SVGID_3_" gradientUnits="userSpaceOnUse" x1="371.4793" y1="1097.3763" x2="1085.4792" y2="411.3764">
		<stop  offset="0" style="stop-color:#8B80FC"/>
		<stop  offset="1" style="stop-color:#CB3958"/>
	</linearGradient>
	<path fill="url(#SVGID_3_)" d="M873.7,624.8c-3.9-1.3-6.9-4.1-8.7-7.4c-0.9-1.7-1.3-3.5-1.6-5.4c-0.3-1.9-0.1-3.9,0.4-5.8
		c1.1-3.9,3.7-6.9,7.1-8.8c1.7-0.9,3.5-1.6,5.4-1.9c1.9-0.3,3.9-0.2,5.9,0.3c2,0.5,3.8,1.4,5.4,2.6c1.6,1.2,2.9,2.7,3.8,4.4
		c1.9,3.4,2.4,7.6,1.2,11.8c-0.6,2.1-1.6,4-2.8,5.5c-1.2,1.6-2.9,2.8-4.6,3.7C881.7,625.6,877.6,626.1,873.7,624.8z"/>
</g>
<g>
	<linearGradient id="SVGID_4_" gradientUnits="userSpaceOnUse" x1="390.1762" y1="1116.8364" x2="1104.1763" y2="430.8365">
		<stop  offset="0" style="stop-color:#8B80FC"/>
		<stop  offset="1" style="stop-color:#CB3958"/>
	</linearGradient>
	<path fill="url(#SVGID_4_)" d="M848.9,683.1c-3.7-1.9-6.2-5.2-7.4-8.8c-0.6-1.8-0.9-3.7-0.7-5.6c0.1-0.9,0.2-1.9,0.5-2.8
		c0.3-0.9,0.6-1.8,1-2.8c1.6-3.7,4.7-6.3,8.2-7.6c3.6-1.3,7.7-1.4,11.5,0.3c3.8,1.6,6.5,4.7,7.9,8.3c1.3,3.7,1.2,7.9-0.6,11.9
		c-0.4,1-1,1.9-1.7,2.7c-0.6,0.8-1.4,1.6-2.1,2.2c-1.5,1.3-3.3,2.3-5.1,3C856.6,685.2,852.5,685,848.9,683.1z"/>
</g>
<g>
	<linearGradient id="SVGID_5_" gradientUnits="userSpaceOnUse" x1="402.2675" y1="1129.4213" x2="1116.2676" y2="443.4213">
		<stop  offset="0" style="stop-color:#8B80FC"/>
		<stop  offset="1" style="stop-color:#CB3958"/>
	</linearGradient>
	<path fill="url(#SVGID_5_)" d="M815,736.7c-1.7-1.2-3-2.8-3.9-4.4c-1-1.7-1.7-3.5-2-5.4c-0.6-3.8,0.1-7.7,2.4-11
		c1.1-1.6,2.7-2.9,4.2-4c1.6-1,3.3-1.8,5.2-2.1c3.7-0.8,7.8-0.1,11.3,2.1s5.7,5.7,6.5,9.5c0.4,1.9,0.4,3.9,0,5.9
		c-0.4,2-1.3,3.9-2.5,5.7c-2.5,3.5-6.2,5.8-10,6.4c-1.9,0.3-3.9,0.3-5.7-0.1C818.5,738.8,816.6,737.9,815,736.7z"/>
</g>
<g>
	<linearGradient id="SVGID_6_" gradientUnits="userSpaceOnUse" x1="407.4225" y1="1134.7866" x2="1121.4225" y2="448.7867">
		<stop  offset="0" style="stop-color:#8B80FC"/>
		<stop  offset="1" style="stop-color:#CB3958"/>
	</linearGradient>
	<path fill="url(#SVGID_6_)" d="M772.9,784.1c-2.9-3-4.3-6.9-4.2-10.6c0-0.9,0.1-1.9,0.3-2.8c0.2-0.9,0.5-1.8,0.8-2.7
		c0.7-1.8,1.7-3.5,3.1-4.9c2.8-2.9,6.5-4.4,10.3-4.5c3.8-0.1,7.7,1.1,10.8,3.8c3.1,2.7,4.8,6.6,4.9,10.5c0.1,3.9-1.4,7.9-4.4,11
		c-1.5,1.6-3.2,2.8-5.1,3.6c-0.9,0.4-1.9,0.7-2.9,0.9c-1,0.2-2,0.3-3,0.3C779.6,788.6,775.7,787.1,772.9,784.1z"/>
</g>
<g>
	<linearGradient id="SVGID_7_" gradientUnits="userSpaceOnUse" x1="134.1576" y1="850.3682" x2="848.1577" y2="164.3681">
		<stop  offset="0" style="stop-color:#8B80FC"/>
		<stop  offset="1" style="stop-color:#CB3958"/>
	</linearGradient>
	<path fill="url(#SVGID_7_)" d="M205.1,761.2c3.1-2.7,7-4,10.8-3.8c3.8,0.1,7.6,1.6,10.3,4.5c1.4,1.5,2.4,3.1,3.1,4.9
		c0.3,0.9,0.6,1.8,0.7,2.8c0.2,0.9,0.3,1.9,0.3,2.8c0,3.8-1.4,7.6-4.3,10.6c-2.9,3-6.7,4.5-10.7,4.5c-1,0-2-0.1-2.9-0.3
		c-1-0.2-1.9-0.5-2.8-0.9c-1.8-0.8-3.6-2-5.1-3.6c-3-3.1-4.5-7.1-4.4-11C200.4,767.7,202,764,205.1,761.2z"/>
</g>
<g>
	<linearGradient id="SVGID_8_" gradientUnits="userSpaceOnUse" x1="90.3457" y1="804.768" x2="804.3458" y2="118.768">
		<stop  offset="0" style="stop-color:#8B80FC"/>
		<stop  offset="1" style="stop-color:#CB3958"/>
	</linearGradient>
	<path fill="url(#SVGID_8_)" d="M167,710.5c3.5-2.2,7.6-2.8,11.3-2.1c1.9,0.4,3.6,1.1,5.2,2.2c0.8,0.5,1.5,1.1,2.2,1.8
		c0.7,0.7,1.4,1.4,2,2.2c2.3,3.3,3.1,7.2,2.4,11c-0.7,3.8-2.7,7.4-6,9.9c-3.3,2.5-7.3,3.3-11.1,2.6c-3.8-0.7-7.5-2.9-10-6.5
		c-0.6-0.9-1.2-1.8-1.6-2.7c-0.4-0.9-0.7-2-0.9-2.9c-0.4-2-0.4-4,0-5.9C161.3,716.2,163.5,712.8,167,710.5z"/>
</g>
<g>
	<linearGradient id="SVGID_9_" gradientUnits="userSpaceOnUse" x1="47.6826" y1="760.3635" x2="761.6826" y2="74.3635">
		<stop  offset="0" style="stop-color:#8B80FC"/>
		<stop  offset="1" style="stop-color:#CB3958"/>
	</linearGradient>
	<path fill="url(#SVGID_9_)" d="M137.5,654.5c3.8-1.6,8-1.6,11.5-0.2c3.6,1.3,6.6,3.9,8.3,7.6c0.4,0.9,0.7,1.9,0.9,2.8
		c0.3,0.9,0.4,1.9,0.5,2.8c0.1,1.9-0.1,3.8-0.8,5.6c-1.2,3.6-3.8,6.8-7.4,8.7s-7.8,2.1-11.5,0.9c-1.9-0.6-3.6-1.6-5.1-3
		c-0.8-0.7-1.5-1.4-2.1-2.2c-0.6-0.8-1.1-1.8-1.6-2.7c-1.8-4-1.9-8.2-0.6-11.9C130.9,659.1,133.6,656.1,137.5,654.5z"/>
</g>
<g>
	<linearGradient id="SVGID_10_" gradientUnits="userSpaceOnUse" x1="7.2861" y1="718.3182" x2="721.2861" y2="32.3182">
		<stop  offset="0" style="stop-color:#8B80FC"/>
		<stop  offset="1" style="stop-color:#CB3958"/>
	</linearGradient>
	<path fill="url(#SVGID_10_)" d="M117.4,594.3c4-1,8-0.2,11.3,1.7c3.4,1.9,6,4.9,7.1,8.8c0.5,1.9,0.7,3.9,0.4,5.8
		c-0.1,0.9-0.3,1.9-0.6,2.8c-0.3,0.9-0.6,1.8-1.1,2.6c-1.7,3.3-4.8,6.1-8.7,7.4c-3.9,1.3-8,0.9-11.5-1c-0.9-0.5-1.7-1-2.5-1.6
		c-0.7-0.6-1.4-1.4-2-2.1c-1.2-1.6-2.2-3.4-2.8-5.5c-1.2-4.2-0.6-8.4,1.2-11.8C110.2,597.8,113.4,595.3,117.4,594.3z"/>
</g>
<g>
	<linearGradient id="SVGID_11_" gradientUnits="userSpaceOnUse" x1="-29.7767" y1="679.7427" x2="684.2233" y2="-6.2574">
		<stop  offset="0" style="stop-color:#8B80FC"/>
		<stop  offset="1" style="stop-color:#CB3958"/>
	</linearGradient>
	<path fill="url(#SVGID_11_)" d="M107.4,531.7c4.1-0.3,8,1,10.9,3.5c1.5,1.2,2.6,2.7,3.6,4.3c1,1.7,1.6,3.5,1.9,5.5
		c0.5,4-0.7,7.8-3.1,10.8c-2.4,3-5.8,5.3-9.9,5.9c-4.1,0.6-8.1-0.4-11.1-2.8c-3-2.4-5.2-6.1-5.7-10.4c-0.3-2.1-0.1-4.2,0.4-6.2
		c0.5-1.9,1.6-3.7,2.8-5.2C99.6,534,103.3,532,107.4,531.7z"/>
</g>
<g>
	<linearGradient id="SVGID_12_" gradientUnits="userSpaceOnUse" x1="-62.5532" y1="645.6283" x2="651.4468" y2="-40.3717">
		<stop  offset="0" style="stop-color:#8B80FC"/>
		<stop  offset="1" style="stop-color:#CB3958"/>
	</linearGradient>
	<path fill="url(#SVGID_12_)" d="M107.4,468.3c4.1,0.3,7.7,2.3,10.2,5.1c1.3,1.4,2.2,3.1,2.9,4.8c0.6,1.8,1,3.7,0.9,5.7
		c-0.1,4-1.9,7.6-4.7,10.2c-2.8,2.6-6.6,4.3-10.7,4.3c-4.1,0-7.8-1.7-10.5-4.6c-2.6-2.8-4.2-6.8-4.1-11.1c0-2.2,0.5-4.2,1.4-6
		c0.9-1.8,2.1-3.4,3.6-4.7C99.4,469.4,103.3,468,107.4,468.3z"/>
</g>
<g>
	<linearGradient id="SVGID_13_" gradientUnits="userSpaceOnUse" x1="-90.2806" y1="616.7691" x2="623.7194" y2="-69.2309">
		<stop  offset="0" style="stop-color:#8B80FC"/>
		<stop  offset="1" style="stop-color:#CB3958"/>
	</linearGradient>
	<path fill="url(#SVGID_13_)" d="M117.4,405.7c4,1,7.3,3.5,9.3,6.7c2,3.2,2.9,7.1,2,11c-0.7,3.9-3,7.2-6.1,9.4
		c-3.1,2.1-7.1,3.2-11.2,2.5c-4.1-0.7-7.5-3-9.7-6.2c-2.2-3.2-3.1-7.4-2.4-11.7c1-4.2,3.5-7.7,6.8-9.8
		C109.4,405.5,113.4,404.7,117.4,405.7z"/>
</g>
<g>
	<linearGradient id="SVGID_14_" gradientUnits="userSpaceOnUse" x1="-112.1916" y1="593.9639" x2="601.8084" y2="-92.0361">
		<stop  offset="0" style="stop-color:#8B80FC"/>
		<stop  offset="1" style="stop-color:#CB3958"/>
	</linearGradient>
	<path fill="url(#SVGID_14_)" d="M137.5,345.5c1.9,0.8,3.5,2,4.9,3.4c1.4,1.4,2.5,3,3.2,4.8c1.5,3.5,1.8,7.5,0.3,11.2
		c-0.7,1.9-1.9,3.5-3.2,4.9c-1.3,1.4-2.8,2.5-4.5,3.3c-3.4,1.6-7.5,2-11.4,0.7c-3.9-1.3-6.9-4.1-8.6-7.7c-0.8-1.8-1.3-3.7-1.4-5.8
		c-0.1-2,0.3-4.1,1.1-6.1c1.6-4,4.6-7.1,8.1-8.6c1.8-0.8,3.7-1.2,5.6-1.2C133.6,344.3,135.6,344.7,137.5,345.5z"/>
</g>
<g>
	<linearGradient id="SVGID_15_" gradientUnits="userSpaceOnUse" x1="-127.6293" y1="577.8961" x2="586.3707" y2="-108.1039">
		<stop  offset="0" style="stop-color:#8B80FC"/>
		<stop  offset="1" style="stop-color:#CB3958"/>
	</linearGradient>
	<path fill="url(#SVGID_15_)" d="M167,289.5c3.5,2.2,5.8,5.6,6.6,9.3c0.8,3.6,0.5,7.7-1.5,11.2c-2,3.5-5.3,5.8-9,6.8
		c-3.6,1-7.7,0.8-11.4-1.2c-3.6-1.9-6.2-5.2-7.3-9c-1-3.7-0.5-8,1.7-11.7c2.2-3.8,5.5-6.3,9.4-7.2
		C159.5,286.7,163.5,287.2,167,289.5z"/>
</g>
<g>
	<linearGradient id="SVGID_16_" gradientUnits="userSpaceOnUse" x1="-136.3075" y1="568.8636" x2="577.6925" y2="-117.1364">
		<stop  offset="0" style="stop-color:#8B80FC"/>
		<stop  offset="1" style="stop-color:#CB3958"/>
	</linearGradient>
	<path fill="url(#SVGID_16_)" d="M205.1,238.8c3.1,2.8,4.8,6.5,5.1,10.3c0.3,3.8-0.8,7.6-3.4,10.7c-2.5,3.2-6,5-9.8,5.4
		c-3.8,0.4-7.8-0.5-11.1-3c-3.3-2.5-5.2-6.1-5.6-10c-0.4-3.9,0.7-8,3.4-11.4c2.8-3.3,6.7-5.2,10.5-5.5
		C198.1,234.8,202,236,205.1,238.8z"/>
</g>
<g>
	<linearGradient id="SVGID_17_" gradientUnits="userSpaceOnUse" x1="157.2642" y1="874.4178" x2="871.2642" y2="188.4178">
		<stop  offset="0" style="stop-color:#8B80FC"/>
		<stop  offset="1" style="stop-color:#CB3958"/>
	</linearGradient>
	<path fill="url(#SVGID_17_)" d="M815,263.3c-3.3,2.5-7.3,3.4-11.1,3c-3.8-0.4-7.4-2.2-9.8-5.4c-0.6-0.8-1.1-1.6-1.6-2.5
		c-0.5-0.8-0.8-1.7-1.1-2.6c-0.6-1.8-0.8-3.7-0.6-5.6c0.3-3.8,2-7.5,5.1-10.3c3.1-2.7,7-3.9,10.9-3.6c1.9,0.2,3.9,0.7,5.7,1.7
		c0.9,0.5,1.8,1,2.6,1.7c0.8,0.6,1.5,1.4,2.2,2.3c2.7,3.4,3.8,7.5,3.4,11.4C820.2,257.2,818.3,260.8,815,263.3z"/>
</g>
<g>
	<linearGradient id="SVGID_18_" gradientUnits="userSpaceOnUse" x1="200.6389" y1="919.563" x2="914.6389" y2="233.563">
		<stop  offset="0" style="stop-color:#8B80FC"/>
		<stop  offset="1" style="stop-color:#CB3958"/>
	</linearGradient>
	<path fill="url(#SVGID_18_)" d="M848.9,316.9c-3.7,1.9-7.8,2.2-11.3,1.1c-3.6-1.1-7-3.4-9-6.8c-1-1.7-1.6-3.6-1.8-5.5
		c-0.2-1.9,0-3.9,0.4-5.7c0.9-3.7,3.1-7.1,6.7-9.3c3.5-2.2,7.6-2.8,11.4-1.8c1.9,0.5,3.7,1.4,5.3,2.6c1.6,1.2,3,2.8,4.1,4.7
		c2.1,3.8,2.7,8,1.6,11.7C855.1,311.7,852.5,315,848.9,316.9z"/>
</g>
<g>
	<linearGradient id="SVGID_19_" gradientUnits="userSpaceOnUse" x1="242.3079" y1="962.9327" x2="956.3079" y2="276.9327">
		<stop  offset="0" style="stop-color:#8B80FC"/>
		<stop  offset="1" style="stop-color:#CB3958"/>
	</linearGradient>
	<path fill="url(#SVGID_19_)" d="M873.7,375.2c-3.9,1.3-8,0.9-11.4-0.7c-3.4-1.6-6.1-4.5-7.6-8.2c-1.5-3.7-1.2-7.7,0.3-11.2
		c1.5-3.5,4.4-6.5,8.2-8.1c3.8-1.6,7.9-1.5,11.4,0.1c3.5,1.6,6.5,4.6,8.1,8.7c1.7,4,1.2,8.3-0.4,11.9
		C880.7,371.1,877.6,373.9,873.7,375.2z"/>
</g>
<g>
	<linearGradient id="SVGID_20_" gradientUnits="userSpaceOnUse" x1="281.1504" y1="1003.3606" x2="995.1504" y2="317.3606">
		<stop  offset="0" style="stop-color:#8B80FC"/>
		<stop  offset="1" style="stop-color:#CB3958"/>
	</linearGradient>
	<path fill="url(#SVGID_20_)" d="M888.9,436.8c-4.1,0.7-8.1-0.4-11.2-2.6c-3.1-2.2-5.4-5.4-6.1-9.4c-0.2-1-0.3-2-0.3-2.9
		c0-1,0.1-1.9,0.2-2.8c0.3-1.9,1.1-3.6,2.1-5.2c2-3.2,5.3-5.7,9.3-6.7s8.1-0.2,11.3,1.9c1.6,1.1,3.1,2.5,4.3,4.1
		c0.6,0.8,1.1,1.7,1.5,2.7c0.4,1,0.8,2,0.9,3c0.8,4.3-0.2,8.4-2.4,11.7C896.4,433.9,893,436.1,888.9,436.8z"/>
</g>
<g>
	<linearGradient id="SVGID_21_" gradientUnits="userSpaceOnUse" x1="316.1864" y1="1039.8267" x2="1030.1864" y2="353.8267">
		<stop  offset="0" style="stop-color:#8B80FC"/>
		<stop  offset="1" style="stop-color:#CB3958"/>
	</linearGradient>
	<path fill="url(#SVGID_21_)" d="M894,500c-4.1,0-7.9-1.7-10.7-4.3c-2.8-2.6-4.6-6.2-4.7-10.2c-0.1-2,0.4-3.9,1-5.7
		c0.6-1.8,1.6-3.4,2.9-4.8c2.5-2.8,6.1-4.8,10.2-5.1s8,1.1,10.9,3.7c1.5,1.3,2.7,2.9,3.6,4.7c0.9,1.8,1.3,3.9,1.4,6
		c0.1,4.3-1.5,8.3-4.1,11.1C901.8,498.3,898.1,500,894,500z"/>
</g>
</svg>
